<svg id="visual" viewBox="0 0 900 600" width="900" height="600" xmlns="http://www.w3.org/2000/svg" xmlns:xlink="http://www.w3.org/1999/xlink" version="1.1"><g><g transform="translate(400 359)"><path d="M0 -77.2L66.9 -38.6L66.9 38.6L0 77.2L-66.9 38.6L-66.9 -38.6Z" fill="#4ddf42"></path></g><g transform="translate(238 414)"><path d="M0 -61L52.8 -30.5L52.8 30.5L0 61L-52.8 30.5L-52.8 -30.5Z" fill="#4ddf42"></path></g><g transform="translate(679 48)"><path d="M0 -73L63.2 -36.5L63.2 36.5L0 73L-63.2 36.5L-63.2 -36.5Z" fill="#4ddf42"></path></g><g transform="translate(189 159)"><path d="M0 -64L55.4 -32L55.4 32L0 64L-55.4 32L-55.4 -32Z" fill="#4ddf42"></path></g><g transform="translate(538 577)"><path d="M0 -58L50.2 -29L50.2 29L0 58L-50.2 29L-50.2 -29Z" fill="#4ddf42"></path></g><g transform="translate(408 110)"><path d="M0 -57L49.4 -28.5L49.4 28.5L0 57L-49.4 28.5L-49.4 -28.5Z" fill="#4ddf42"></path></g><g transform="translate(671 396)"><path d="M0 -74L64.1 -37L64.1 37L0 74L-64.1 37L-64.1 -37Z" fill="#4ddf42"></path></g><g transform="translate(330 575)"><path d="M0 -63L54.6 -31.5L54.6 31.5L0 63L-54.6 31.5L-54.6 -31.5Z" fill="#4ddf42"></path></g><g transform="translate(573 222)"><path d="M0 -58L50.2 -29L50.2 29L0 58L-50.2 29L-50.2 -29Z" fill="#4ddf42"></path></g><g transform="translate(82 364)"><path d="M0 -60L52 -30L52 30L0 60L-52 30L-52 -30Z" fill="#4ddf42"></path></g><g transform="translate(852 82)"><path d="M0 -60L52 -30L52 30L0 60L-52 30L-52 -30Z" fill="#4ddf42"></path></g><g transform="translate(797 285)"><path d="M0 -67L58 -33.5L58 33.5L0 67L-58 33.5L-58 -33.5Z" fill="#4ddf42"></path></g><g transform="translate(866 428)"><path d="M0 -70L60.6 -35L60.6 35L0 70L-60.6 35L-60.6 -35Z" fill="#4ddf42"></path></g></g></svg>